<svg xmlns="http://www.w3.org/2000/svg" xmlns:xlink="http://www.w3.org/1999/xlink" width="500" zoomAndPan="magnify" viewBox="0 0 375 374.999991" height="500" preserveAspectRatio="xMidYMid meet" version="1.0"><defs><g/><clipPath id="687f65405f"><path d="M 70.273438 193.082031 L 126.898438 193.082031 L 126.898438 218.007812 L 70.273438 218.007812 Z M 70.273438 193.082031 " clip-rule="nonzero"/></clipPath><clipPath id="fed525c27f"><path d="M 78.351562 100 L 278 100 L 278 215.507812 L 78.351562 215.507812 Z M 78.351562 100 " clip-rule="nonzero"/></clipPath><clipPath id="2c8b28f512"><path d="M 107.910156 60.59375 L 314.910156 60.59375 L 314.910156 267.59375 L 107.910156 267.59375 Z M 107.910156 60.59375 " clip-rule="nonzero"/></clipPath><clipPath id="cd60a1c0ae"><path d="M 108 68 L 229 68 L 229 242.84375 L 108 242.84375 Z M 108 68 " clip-rule="nonzero"/></clipPath><clipPath id="a68f7732c5"><path d="M 118 78 L 267.402344 78 L 267.402344 234 L 118 234 Z M 118 78 " clip-rule="nonzero"/></clipPath><clipPath id="ac1ccd9fa1"><path d="M 60.402344 61 L 176 61 L 176 242.84375 L 60.402344 242.84375 Z M 60.402344 61 " clip-rule="nonzero"/></clipPath></defs><rect x="-37.5" width="450" fill="#ffffff" y="-37.499999" height="449.999989" fill-opacity="1"/><rect x="-37.5" width="450"  y="-37.499999" height="449.999989" fill-opacity="1"/><g clip-path="url(#687f65405f)"><path fill="#000000" d="M 70.273438 193.082031 L 126.933594 193.082031 L 126.933594 218.007812 L 70.273438 218.007812 Z M 70.273438 193.082031 " fill-opacity="1" fill-rule="nonzero"/></g><path fill="#ffffff" d="M 254.195312 199.304688 C 250.230469 202.832031 244.996094 204.597656 239.6875 204.519531 L 102.335938 202.058594 L 233.460938 199.925781 C 239.644531 199.84375 245.804688 198.886719 251.644531 196.847656 C 254.074219 196 256.523438 194.945312 258.640625 193.644531 C 258.640625 193.644531 257.421875 196.433594 254.195312 199.304688 " fill-opacity="1" fill-rule="nonzero"/><path fill="#ffffff" d="M 234.972656 135.898438 C 232.765625 127.375 223.191406 117.332031 223.191406 117.332031 C 201.894531 109.601562 159.871094 109.074219 159.871094 109.074219 C 180.382812 106.234375 216.722656 107.234375 226.347656 115.597656 C 233.214844 121.5625 239.871094 132.621094 243.117188 138.464844 C 243.984375 140.023438 242.691406 141.890625 240.925781 141.625 C 194.773438 134.625 131.996094 135.980469 131.996094 135.980469 C 184.0625 127.671875 234.972656 135.898438 234.972656 135.898438 " fill-opacity="1" fill-rule="nonzero"/><path fill="#ffffff" d="M 210.042969 178.183594 C 201 179.339844 176.175781 180.179688 168.285156 174.449219 C 168.285156 174.449219 195.898438 176.8125 210.257812 173.5 C 224.613281 170.1875 231.710938 191.800781 228.714844 195.273438 C 225.71875 198.746094 202.996094 197.640625 202.996094 197.640625 C 202.996094 197.640625 220.773438 196.378906 223.71875 191.960938 C 226.664062 187.542969 219.089844 177.023438 210.042969 178.183594 " fill-opacity="1" fill-rule="nonzero"/><path fill="#ffffff" d="M 261.269531 157.777344 C 261.269531 157.777344 265.6875 172.710938 253.066406 177.234375 C 240.445312 181.757812 226.136719 173.972656 226.136719 173.972656 C 226.136719 173.972656 245.914062 177.761719 252.144531 171.527344 C 258.378906 165.296875 254.984375 161.746094 254.984375 161.746094 C 254.984375 161.746094 247.570312 159.929688 240.785156 166.085938 C 234 172.238281 221.773438 166.398438 221.773438 166.398438 C 221.773438 166.398438 234.554688 164.507812 241.914062 158.511719 C 249.28125 152.515625 261.269531 157.777344 261.269531 157.777344 " fill-opacity="1" fill-rule="nonzero"/><g clip-path="url(#fed525c27f)"><path fill="#ffffff" d="M 264.039062 208.839844 C 267.648438 208.8125 270.601562 205.949219 270.722656 202.335938 C 271.191406 188.386719 271 168.292969 271 168.292969 C 265.832031 159.808594 259.902344 153.671875 259.902344 153.671875 C 266.109375 143.363281 246.753906 141.785156 246.753906 141.785156 C 241.390625 128.640625 229.390625 114.542969 229.390625 114.542969 C 211.292969 101.503906 155.664062 103.132812 155.664062 103.132812 C 190.847656 97.765625 225.246094 103.132812 232.1875 109.441406 C 239.128906 115.753906 248.910156 135.320312 248.910156 135.320312 C 248.910156 135.320312 260.269531 138.789062 264.375 142.3125 C 268.476562 145.835938 267.054688 153.777344 267.054688 153.777344 C 272.734375 159.457031 275.46875 165.453125 275.46875 165.453125 L 277.785156 203.109375 C 278.835938 214.46875 272.105469 215.3125 272.105469 215.3125 L 78.351562 210.472656 L 264.039062 208.839844 " fill-opacity="1" fill-rule="nonzero"/></g><path fill="#ffffff" d="M 268.421875 147.78125 C 268.421875 147.78125 269.421875 143.035156 265.320312 140.648438 C 265.320312 140.648438 270.367188 141.105469 274.417969 142.46875 C 278.46875 143.839844 277.363281 136.632812 271.15625 136.6875 C 264.949219 136.738281 260.847656 137.738281 260.847656 137.738281 C 260.847656 137.738281 255.847656 135.007812 251.015625 133.738281 C 251.015625 133.738281 269.054688 129.375 277.046875 133.058594 C 285.042969 136.738281 282.742188 148.308594 277.894531 149.570312 C 273.050781 150.832031 268.421875 147.78125 268.421875 147.78125 " fill-opacity="1" fill-rule="nonzero"/><g clip-path="url(#2c8b28f512)"><path fill="#000000" d="M 211.410156 60.59375 C 154.226562 60.59375 107.910156 106.910156 107.910156 164.09375 C 107.910156 221.277344 154.226562 267.59375 211.410156 267.59375 C 268.597656 267.59375 314.910156 221.277344 314.910156 164.09375 C 314.910156 106.910156 268.597656 60.59375 211.410156 60.59375 Z M 211.410156 246.894531 C 165.664062 246.894531 128.613281 209.84375 128.613281 164.09375 C 128.613281 118.347656 165.664062 81.296875 211.410156 81.296875 C 257.160156 81.296875 294.210938 118.347656 294.210938 164.09375 C 294.210938 209.84375 257.160156 246.894531 211.410156 246.894531 Z M 211.410156 246.894531 " fill-opacity="1" fill-rule="nonzero"/></g><g clip-path="url(#cd60a1c0ae)"><path fill="#ff3131" d="M 132.464844 222.222656 L 129.117188 218.246094 C 127.972656 216.945312 127.101562 215.445312 126.078125 214.054688 C 123.996094 211.277344 122.410156 208.210938 120.667969 205.226562 C 114.25 192.996094 110.667969 179.460938 109.3125 165.816406 C 108.054688 152.144531 109.320312 138.257812 113.027344 125.03125 C 114.777344 118.378906 117.523438 112.03125 120.546875 105.867188 L 123.113281 101.382812 C 123.925781 99.863281 124.878906 98.429688 125.902344 97.039062 C 126.910156 95.636719 127.855469 94.199219 128.914062 92.839844 L 132.269531 88.898438 C 141.355469 78.609375 153.820312 70.761719 167.566406 68.855469 C 169.25 68.460938 170.992188 68.546875 172.699219 68.445312 C 174.417969 68.378906 176.128906 68.277344 177.84375 68.429688 C 181.257812 68.671875 184.644531 69.261719 187.914062 70.199219 C 194.46875 72.078125 200.519531 75.324219 205.804688 79.433594 C 194.578125 72.191406 180.820312 68.910156 168.050781 71.738281 C 155.230469 74.214844 144.042969 82.042969 135.789062 91.949219 L 132.765625 95.753906 C 131.816406 97.070312 130.972656 98.460938 130.070312 99.808594 C 128.171875 102.441406 126.828125 105.4375 125.210938 108.242188 C 122.480469 114.136719 120 120.183594 118.480469 126.523438 C 115.15625 139.097656 113.960938 152.304688 115.277344 165.277344 C 116.472656 178.230469 119.824219 191.050781 125.707031 202.613281 C 127.28125 205.441406 128.707031 208.371094 130.601562 210.996094 C 131.53125 212.3125 132.316406 213.75 133.363281 214.980469 L 136.398438 218.753906 C 137.375 220.046875 138.613281 221.089844 139.707031 222.273438 C 140.824219 223.433594 141.941406 224.601562 143.214844 225.585938 L 146.917969 228.679688 L 150.917969 231.359375 C 156.394531 234.652344 162.375 237.242188 168.726562 238.3125 C 174.96875 239.324219 181.789062 239.1875 188.464844 239.414062 C 201.84375 239.824219 215.226562 240.21875 228.609375 240.882812 C 215.226562 241.546875 201.84375 241.941406 188.464844 242.351562 C 181.773438 242.464844 175.152344 242.957031 168.125 242.195312 C 161.179688 241.367188 154.589844 238.722656 148.515625 235.367188 C 142.375 232.011719 137.191406 227.261719 132.464844 222.222656 " fill-opacity="1" fill-rule="nonzero"/></g><g clip-path="url(#a68f7732c5)"><path fill="#d9d9d9" d="M 124.550781 163.109375 L 125.15625 168.226562 C 125.304688 169.941406 125.632812 171.625 125.980469 173.304688 C 126.34375 174.980469 126.570312 176.691406 127.039062 178.335938 C 128.628906 185.011719 131.074219 191.445312 134.132812 197.539062 C 137.199219 203.640625 141.285156 209.167969 145.953125 214.035156 C 150.644531 218.878906 156.160156 222.929688 162.308594 225.574219 L 167.027344 227.25 C 168.636719 227.664062 170.28125 227.957031 171.90625 228.339844 C 175.191406 228.796875 178.5 229.019531 182.121094 229.019531 C 210.441406 229.460938 238.761719 230.113281 267.085938 231.359375 C 238.761719 232.605469 210.441406 233.257812 182.121094 233.695312 C 178.664062 233.808594 174.875 233.71875 171.148438 233.308594 C 169.3125 232.949219 167.460938 232.636719 165.640625 232.199219 L 160.3125 230.425781 C 153.367188 227.605469 147.171875 223.234375 141.925781 218.03125 C 131.371094 207.554688 124.792969 193.863281 121.222656 179.753906 C 120.734375 177.992188 120.5 176.175781 120.128906 174.390625 C 119.773438 172.601562 119.4375 170.804688 119.289062 168.988281 L 118.6875 163.554688 L 118.496094 158.09375 C 118.472656 157.183594 118.417969 156.277344 118.421875 155.367188 L 118.53125 152.636719 C 118.621094 150.820312 118.648438 148.996094 118.789062 147.183594 C 119.246094 143.570312 119.503906 139.929688 120.359375 136.375 C 120.96875 132.777344 122.050781 129.289062 123.042969 125.78125 C 123.601562 124.050781 124.292969 122.355469 124.910156 120.640625 C 125.496094 118.910156 126.261719 117.253906 127.050781 115.605469 C 128.488281 112.246094 130.378906 109.105469 132.222656 105.953125 L 135.382812 101.464844 C 136.40625 99.949219 137.710938 98.636719 138.863281 97.214844 C 143.710938 91.742188 149.429688 86.933594 155.992188 83.574219 C 162.519531 80.199219 169.871094 78.273438 177.207031 78.398438 C 184.53125 78.398438 191.773438 80.359375 198.109375 83.777344 C 204.464844 87.195312 209.929688 91.992188 214.414062 97.472656 C 209.464844 92.410156 203.714844 88.148438 197.375 85.257812 C 191.039062 82.390625 184.101562 80.90625 177.261719 81.324219 C 170.414062 81.546875 163.722656 83.617188 157.839844 87.019531 C 151.9375 90.40625 146.746094 94.96875 142.40625 100.234375 C 141.378906 101.601562 140.203125 102.847656 139.289062 104.300781 L 136.476562 108.59375 C 134.847656 111.609375 133.101562 114.558594 131.824219 117.753906 C 131.113281 119.3125 130.417969 120.878906 129.90625 122.527344 C 129.359375 124.152344 128.734375 125.753906 128.246094 127.398438 C 127.378906 130.722656 126.417969 134.019531 125.914062 137.429688 C 125.1875 140.792969 124.964844 144.234375 124.546875 147.644531 C 124.425781 149.359375 124.414062 151.082031 124.339844 152.800781 L 124.25 155.378906 C 124.253906 156.234375 124.3125 157.09375 124.339844 157.957031 L 124.550781 163.109375 " fill-opacity="1" fill-rule="nonzero"/></g><g clip-path="url(#ac1ccd9fa1)"><path fill="#ff3131" d="M 66.886719 156.066406 L 77.859375 165.300781 C 78.511719 172.238281 79.789062 179.125 81.75 185.808594 L 69.359375 178.78125 C 68.140625 172.914062 67.339844 166.957031 67.054688 160.964844 C 66.960938 159.332031 66.910156 157.699219 66.886719 156.066406 Z M 70.832031 185.128906 L 83.992188 192.589844 C 85.328125 196.140625 86.871094 199.613281 88.652344 202.972656 C 89.953125 205.441406 91.417969 207.835938 92.96875 210.175781 L 78.488281 205.253906 C 77.753906 203.824219 77.050781 202.386719 76.386719 200.929688 C 74.109375 195.816406 72.253906 190.527344 70.832031 185.128906 Z M 92.835938 200.929688 C 91.527344 197.988281 90.367188 194.988281 89.328125 191.949219 L 99.175781 181.148438 C 100.691406 187.242188 102.714844 193.207031 105.316406 198.960938 L 98.195312 211.050781 C 96.207031 207.777344 94.410156 204.394531 92.835938 200.929688 Z M 99.59375 126.035156 L 85.402344 132.550781 C 86.195312 128.371094 87.210938 124.230469 88.429688 120.144531 C 89.140625 117.847656 89.960938 115.582031 90.832031 113.335938 L 106.132812 108.230469 C 103.398438 113.957031 101.214844 119.929688 99.59375 126.035156 Z M 95.9375 155.53125 C 95.980469 162.199219 96.671875 168.855469 97.921875 175.40625 L 87.675781 186.652344 C 87.1875 184.898438 86.734375 183.140625 86.339844 181.367188 C 85.074219 175.84375 84.214844 170.222656 83.761719 164.570312 Z M 83.429688 158.84375 C 83.195312 152.671875 83.445312 146.484375 84.191406 140.351562 C 84.269531 139.648438 84.386719 138.949219 84.480469 138.246094 L 98.222656 131.941406 C 97.613281 134.914062 97.125 137.90625 96.78125 140.914062 C 96.425781 143.753906 96.210938 146.609375 96.074219 149.464844 Z M 86.601562 112.511719 C 85.671875 114.519531 84.789062 116.550781 84.011719 118.617188 C 82.472656 122.671875 81.242188 126.832031 80.25 131.050781 L 72.285156 119.242188 C 74.0625 113.6875 76.3125 108.269531 79.039062 103.074219 Z M 70.5625 125.257812 L 78.921875 137.652344 C 77.757812 144.601562 77.289062 151.664062 77.464844 158.707031 L 66.980469 149.882812 C 67.109375 146.699219 67.359375 143.515625 67.742188 140.351562 C 68.304688 135.257812 69.285156 130.222656 70.5625 125.257812 Z M 61.074219 161.269531 C 61.949219 175.710938 65.390625 190.144531 72.203125 202.972656 C 78.917969 215.722656 89.003906 227.125 101.832031 233.410156 C 93.699219 227.441406 87.1875 219.878906 82.042969 211.523438 L 97.929688 216.929688 C 103.589844 223.761719 110.414062 229.554688 118.28125 233.410156 C 111.472656 228.417969 105.804688 222.296875 101.113281 215.535156 L 107.8125 204.160156 C 111.816406 211.832031 116.847656 218.992188 122.863281 225.292969 C 130.035156 232.574219 138.550781 238.675781 148.035156 242.546875 C 139.152344 237.539062 131.421875 231.007812 125.074219 223.453125 C 118.757812 215.867188 113.824219 207.320312 110.089844 198.367188 C 106.429688 189.378906 103.894531 179.976562 102.726562 170.402344 C 102.410156 168.015625 102.28125 165.605469 102.03125 163.210938 C 101.851562 160.808594 101.867188 158.394531 101.777344 155.988281 C 101.753906 153.578125 101.964844 151.171875 102.046875 148.765625 C 102.121094 147.566406 102.109375 146.355469 102.257812 145.164062 L 102.726562 141.582031 C 103.152344 136.777344 104.253906 132.078125 105.277344 127.375 L 107.324219 120.4375 C 108.03125 118.125 109.050781 115.929688 109.855469 113.65625 C 113.460938 104.6875 118.421875 96.25 124.5625 88.664062 C 130.753906 81.140625 138.257812 74.511719 146.996094 69.703125 C 155.6875 64.824219 165.617188 61.90625 175.894531 61.265625 C 165.601562 60.617188 155.070312 62.820312 145.625 67.203125 C 136.171875 71.621094 127.808594 78.121094 120.960938 85.796875 C 116.492188 90.832031 112.617188 96.316406 109.335938 102.113281 L 93.328125 107.453125 C 97.234375 99 102.332031 91.050781 108.78125 84.03125 C 100.5625 90.273438 93.933594 98.570312 88.960938 107.792969 L 81.566406 98.566406 C 84.640625 93.421875 88.199219 88.53125 92.332031 84.03125 C 80.996094 92.644531 72.636719 105.132812 67.5625 118.617188 C 62.410156 132.15625 60.398438 146.808594 61.074219 161.269531 " fill-opacity="1" fill-rule="nonzero"/></g><g fill="#ffffff" fill-opacity="1"><g transform="translate(121.35791, 278.64383)"><g><path d="M 18.175781 -7.621094 C 17.25 -5.640625 15.007812 -4.289062 12.699219 -4.289062 C 9.070312 -4.289062 6.167969 -7.390625 6.167969 -11.214844 C 6.167969 -15.007812 9.070312 -18.140625 12.699219 -18.140625 C 14.976562 -18.140625 17.21875 -16.890625 18.140625 -14.875 L 23.652344 -14.875 C 22.132812 -19.460938 17.8125 -22.761719 12.699219 -22.761719 C 6.332031 -22.761719 1.15625 -17.582031 1.15625 -11.214844 C 1.15625 -4.847656 6.332031 0.328125 12.699219 0.328125 C 17.8125 0.328125 22.167969 -3 23.683594 -7.621094 Z M 18.175781 -7.621094 "/></g></g></g><g fill="#ffffff" fill-opacity="1"><g transform="translate(152.463549, 278.64383)"><g><path d="M 14.183594 -8.578125 L 8.511719 -8.578125 L 11.347656 -16.558594 Z M 22.5625 0 L 13.457031 -22.429688 L 9.269531 -22.429688 L 0.164062 0 L 5.476562 0 L 7.09375 -4.519531 L 15.636719 -4.519531 L 17.25 0 Z M 22.5625 0 "/></g></g></g><g fill="#ffffff" fill-opacity="1"><g transform="translate(181.787951, 278.64383)"><g><path d="M 6.925781 -8.015625 L 6.960938 -8.015625 L 12.304688 0 L 18.570312 0 L 12.140625 -8.246094 C 14.976562 -8.9375 17.25 -11.445312 17.25 -15.238281 C 17.25 -19.496094 14.019531 -22.429688 10.390625 -22.429688 L 1.980469 -22.429688 L 1.980469 0 L 6.925781 0 Z M 9.566406 -18.539062 C 11.015625 -18.539062 12.535156 -17.285156 12.535156 -15.238281 C 12.535156 -13.09375 11.015625 -11.90625 9.566406 -11.90625 L 6.925781 -11.90625 L 6.925781 -18.539062 Z M 9.566406 -18.539062 "/></g></g></g><g fill="#ffffff" fill-opacity="1"><g transform="translate(206.560311, 278.64383)"><g><path d="M 14.183594 -8.578125 L 8.511719 -8.578125 L 11.347656 -16.558594 Z M 22.5625 0 L 13.457031 -22.429688 L 9.269531 -22.429688 L 0.164062 0 L 5.476562 0 L 7.09375 -4.519531 L 15.636719 -4.519531 L 17.25 0 Z M 22.5625 0 "/></g></g></g><g fill="#ffffff" fill-opacity="1"><g transform="translate(235.884707, 278.64383)"><g><path d="M 6.925781 -8.015625 L 10.390625 -8.015625 C 14.019531 -8.015625 17.25 -10.6875 17.25 -15.238281 C 17.25 -19.496094 14.019531 -22.429688 10.390625 -22.429688 L 1.980469 -22.429688 L 1.980469 0 L 6.925781 0 Z M 9.566406 -18.539062 C 11.015625 -18.539062 12.535156 -17.285156 12.535156 -15.238281 C 12.535156 -13.09375 11.015625 -11.90625 9.566406 -11.90625 L 6.925781 -11.90625 L 6.925781 -18.539062 Z M 9.566406 -18.539062 "/></g></g></g></svg>