<svg xmlns="http://www.w3.org/2000/svg" xmlns:xlink="http://www.w3.org/1999/xlink" width="500" zoomAndPan="magnify" viewBox="0 0 375 374.999991" height="500" preserveAspectRatio="xMidYMid meet" version="1.0"><defs><g/><clipPath id="797dabd2fe"><path d="M 70.273438 193.082031 L 126.898438 193.082031 L 126.898438 218.007812 L 70.273438 218.007812 Z M 70.273438 193.082031 " clip-rule="nonzero"/></clipPath><clipPath id="8c16070077"><path d="M 101.253906 100 L 301 100 L 301 215.507812 L 101.253906 215.507812 Z M 101.253906 100 " clip-rule="nonzero"/></clipPath><clipPath id="32ab2b69d8"><path d="M 130.8125 60.59375 L 337.8125 60.59375 L 337.8125 267.59375 L 130.8125 267.59375 Z M 130.8125 60.59375 " clip-rule="nonzero"/></clipPath><clipPath id="55f5f898a7"><path d="M 131 68 L 252 68 L 252 242.84375 L 131 242.84375 Z M 131 68 " clip-rule="nonzero"/></clipPath><clipPath id="63daf61067"><path d="M 83.300781 61 L 199 61 L 199 242.84375 L 83.300781 242.84375 Z M 83.300781 61 " clip-rule="nonzero"/></clipPath></defs><rect x="-37.5" width="450" fill="#ffffff" y="-37.499999" height="449.999989" fill-opacity="1"/><rect x="-37.5" width="450"  y="-37.499999" height="449.999989" fill-opacity="1"/><g clip-path="url(#797dabd2fe)"><path fill="#000000" d="M 70.273438 193.082031 L 126.933594 193.082031 L 126.933594 218.007812 L 70.273438 218.007812 Z M 70.273438 193.082031 " fill-opacity="1" fill-rule="nonzero"/></g><path fill="#ffffff" d="M 277.097656 199.304688 C 273.128906 202.832031 267.898438 204.597656 262.585938 204.519531 L 125.238281 202.058594 L 256.359375 199.925781 C 262.546875 199.84375 268.707031 198.886719 274.546875 196.847656 C 276.976562 196 279.421875 194.945312 281.542969 193.644531 C 281.542969 193.644531 280.324219 196.433594 277.097656 199.304688 " fill-opacity="1" fill-rule="nonzero"/><path fill="#ffffff" d="M 257.875 135.898438 C 255.667969 127.375 246.09375 117.332031 246.09375 117.332031 C 224.792969 109.601562 182.773438 109.074219 182.773438 109.074219 C 203.285156 106.234375 239.625 107.234375 249.25 115.597656 C 256.117188 121.5625 262.773438 132.621094 266.019531 138.464844 C 266.886719 140.023438 265.59375 141.890625 263.828125 141.625 C 217.675781 134.625 154.894531 135.980469 154.894531 135.980469 C 206.960938 127.671875 257.875 135.898438 257.875 135.898438 " fill-opacity="1" fill-rule="nonzero"/><path fill="#ffffff" d="M 232.945312 178.183594 C 223.902344 179.339844 199.078125 180.179688 191.1875 174.449219 C 191.1875 174.449219 218.796875 176.8125 233.15625 173.5 C 247.515625 170.1875 254.613281 191.800781 251.617188 195.273438 C 248.621094 198.746094 225.898438 197.640625 225.898438 197.640625 C 225.898438 197.640625 243.675781 196.378906 246.621094 191.960938 C 249.566406 187.542969 241.992188 177.023438 232.945312 178.183594 " fill-opacity="1" fill-rule="nonzero"/><path fill="#ffffff" d="M 284.171875 157.777344 C 284.171875 157.777344 288.589844 172.710938 275.96875 177.234375 C 263.34375 181.757812 249.039062 173.972656 249.039062 173.972656 C 249.039062 173.972656 268.8125 177.761719 275.046875 171.527344 C 281.277344 165.296875 277.886719 161.746094 277.886719 161.746094 C 277.886719 161.746094 270.472656 159.929688 263.6875 166.085938 C 256.902344 172.238281 244.675781 166.398438 244.675781 166.398438 C 244.675781 166.398438 257.453125 164.507812 264.816406 158.511719 C 272.179688 152.515625 284.171875 157.777344 284.171875 157.777344 " fill-opacity="1" fill-rule="nonzero"/><g clip-path="url(#8c16070077)"><path fill="#ffffff" d="M 286.9375 208.839844 C 290.550781 208.8125 293.5 205.949219 293.625 202.335938 C 294.09375 188.386719 293.902344 168.292969 293.902344 168.292969 C 288.734375 159.808594 282.804688 153.671875 282.804688 153.671875 C 289.007812 143.363281 269.65625 141.785156 269.65625 141.785156 C 264.292969 128.640625 252.292969 114.542969 252.292969 114.542969 C 234.195312 101.503906 178.566406 103.132812 178.566406 103.132812 C 213.75 97.765625 248.144531 103.132812 255.089844 109.441406 C 262.03125 115.753906 271.8125 135.320312 271.8125 135.320312 C 271.8125 135.320312 283.171875 138.789062 287.273438 142.3125 C 291.375 145.835938 289.957031 153.777344 289.957031 153.777344 C 295.636719 159.457031 298.371094 165.453125 298.371094 165.453125 L 300.6875 203.109375 C 301.738281 214.46875 295.003906 215.3125 295.003906 215.3125 L 101.253906 210.472656 L 286.9375 208.839844 " fill-opacity="1" fill-rule="nonzero"/></g><path fill="#ffffff" d="M 291.324219 147.78125 C 291.324219 147.78125 292.324219 143.035156 288.222656 140.648438 C 288.222656 140.648438 293.269531 141.105469 297.320312 142.46875 C 301.371094 143.839844 300.265625 136.632812 294.058594 136.6875 C 287.851562 136.738281 283.75 137.738281 283.75 137.738281 C 283.75 137.738281 278.75 135.007812 273.914062 133.738281 C 273.914062 133.738281 291.953125 129.375 299.949219 133.058594 C 307.941406 136.738281 305.640625 148.308594 300.796875 149.570312 C 295.953125 150.832031 291.324219 147.78125 291.324219 147.78125 " fill-opacity="1" fill-rule="nonzero"/><g clip-path="url(#32ab2b69d8)"><path fill="#000000" d="M 234.3125 60.59375 C 177.128906 60.59375 130.8125 106.910156 130.8125 164.09375 C 130.8125 221.277344 177.128906 267.59375 234.3125 267.59375 C 291.496094 267.59375 337.8125 221.277344 337.8125 164.09375 C 337.8125 106.910156 291.496094 60.59375 234.3125 60.59375 Z M 234.3125 246.894531 C 188.566406 246.894531 151.511719 209.84375 151.511719 164.09375 C 151.511719 118.347656 188.566406 81.296875 234.3125 81.296875 C 280.058594 81.296875 317.113281 118.347656 317.113281 164.09375 C 317.113281 209.84375 280.058594 246.894531 234.3125 246.894531 Z M 234.3125 246.894531 " fill-opacity="1" fill-rule="nonzero"/></g><g clip-path="url(#55f5f898a7)"><path fill="#ff3131" d="M 155.363281 222.222656 L 152.019531 218.246094 C 150.875 216.945312 150.003906 215.445312 148.980469 214.054688 C 146.894531 211.277344 145.308594 208.210938 143.570312 205.226562 C 137.152344 192.996094 133.570312 179.460938 132.214844 165.816406 C 130.953125 152.144531 132.21875 138.257812 135.925781 125.03125 C 137.675781 118.378906 140.425781 112.03125 143.449219 105.867188 L 146.015625 101.382812 C 146.828125 99.863281 147.78125 98.429688 148.804688 97.039062 C 149.8125 95.636719 150.757812 94.199219 151.816406 92.839844 L 155.171875 88.898438 C 164.257812 78.609375 176.722656 70.761719 190.46875 68.855469 C 192.148438 68.460938 193.890625 68.546875 195.601562 68.445312 C 197.320312 68.378906 199.03125 68.277344 200.742188 68.429688 C 204.160156 68.671875 207.546875 69.261719 210.816406 70.199219 C 217.367188 72.078125 223.421875 75.324219 228.707031 79.433594 C 217.476562 72.191406 203.722656 68.910156 190.953125 71.738281 C 178.132812 74.214844 166.945312 82.042969 158.6875 91.949219 L 155.664062 95.753906 C 154.714844 97.070312 153.875 98.460938 152.96875 99.808594 C 151.074219 102.441406 149.730469 105.4375 148.113281 108.242188 C 145.382812 114.136719 142.902344 120.183594 141.382812 126.523438 C 138.054688 139.097656 136.863281 152.304688 138.179688 165.277344 C 139.375 178.230469 142.722656 191.050781 148.605469 202.613281 C 150.179688 205.441406 151.605469 208.371094 153.503906 210.996094 C 154.433594 212.3125 155.214844 213.75 156.261719 214.980469 L 159.300781 218.753906 C 160.277344 220.046875 161.515625 221.089844 162.609375 222.273438 C 163.726562 223.433594 164.839844 224.601562 166.117188 225.585938 L 169.816406 228.679688 L 173.820312 231.359375 C 179.296875 234.652344 185.273438 237.242188 191.628906 238.3125 C 197.871094 239.324219 204.691406 239.1875 211.367188 239.414062 C 224.746094 239.824219 238.128906 240.21875 251.511719 240.882812 C 238.128906 241.546875 224.746094 241.941406 211.367188 242.351562 C 204.675781 242.464844 198.054688 242.957031 191.027344 242.195312 C 184.082031 241.367188 177.488281 238.722656 171.417969 235.367188 C 165.277344 232.011719 160.089844 227.261719 155.363281 222.222656 " fill-opacity="1" fill-rule="nonzero"/></g><path fill="#d9d9d9" d="M 147.453125 163.109375 L 148.058594 168.226562 C 148.207031 169.941406 148.535156 171.625 148.882812 173.304688 C 149.246094 174.980469 149.46875 176.691406 149.941406 178.335938 C 151.527344 185.011719 153.972656 191.445312 157.035156 197.539062 C 160.101562 203.640625 164.183594 209.167969 168.851562 214.035156 C 173.546875 218.878906 179.0625 222.929688 185.210938 225.574219 L 189.929688 227.25 C 191.539062 227.664062 193.183594 227.957031 194.808594 228.339844 C 198.09375 228.796875 201.402344 229.019531 205.019531 229.019531 C 233.34375 229.460938 261.664062 230.113281 289.984375 231.359375 C 261.664062 232.605469 233.34375 233.257812 205.019531 233.695312 C 201.566406 233.808594 197.773438 233.71875 194.050781 233.308594 C 192.214844 232.949219 190.363281 232.636719 188.542969 232.199219 L 183.214844 230.425781 C 176.269531 227.605469 170.074219 223.234375 164.828125 218.03125 C 154.269531 207.554688 147.695312 193.863281 144.125 179.753906 C 143.636719 177.992188 143.402344 176.175781 143.03125 174.390625 C 142.675781 172.601562 142.339844 170.804688 142.191406 168.988281 L 141.589844 163.554688 L 141.398438 158.09375 C 141.375 157.183594 141.320312 156.277344 141.324219 155.367188 L 141.433594 152.636719 C 141.519531 150.820312 141.550781 148.996094 141.691406 147.183594 C 142.144531 143.570312 142.40625 139.929688 143.261719 136.375 C 143.867188 132.777344 144.953125 129.289062 145.945312 125.78125 C 146.503906 124.050781 147.191406 122.355469 147.8125 120.640625 C 148.394531 118.910156 149.164062 117.253906 149.953125 115.605469 C 151.390625 112.246094 153.28125 109.105469 155.125 105.953125 L 158.285156 101.464844 C 159.308594 99.949219 160.613281 98.636719 161.765625 97.214844 C 166.613281 91.742188 172.332031 86.933594 178.894531 83.574219 C 185.417969 80.199219 192.769531 78.273438 200.109375 78.398438 C 207.433594 78.398438 214.675781 80.359375 221.011719 83.777344 C 227.367188 87.195312 232.832031 91.992188 237.316406 97.472656 C 232.367188 92.410156 226.617188 88.148438 220.277344 85.257812 C 213.9375 82.390625 207.003906 80.90625 200.164062 81.324219 C 193.3125 81.546875 186.625 83.617188 180.738281 87.019531 C 174.839844 90.40625 169.648438 94.96875 165.308594 100.234375 C 164.277344 101.601562 163.105469 102.847656 162.191406 104.300781 L 159.378906 108.59375 C 157.75 111.609375 156.003906 114.558594 154.726562 117.753906 C 154.015625 119.3125 153.320312 120.878906 152.808594 122.527344 C 152.257812 124.152344 151.636719 125.753906 151.148438 127.398438 C 150.28125 130.722656 149.316406 134.019531 148.816406 137.429688 C 148.089844 140.792969 147.863281 144.234375 147.449219 147.644531 C 147.328125 149.359375 147.316406 151.082031 147.242188 152.800781 L 147.152344 155.378906 C 147.15625 156.234375 147.214844 157.09375 147.242188 157.957031 L 147.453125 163.109375 " fill-opacity="1" fill-rule="nonzero"/><g clip-path="url(#63daf61067)"><path fill="#ff3131" d="M 89.789062 156.066406 L 100.761719 165.300781 C 101.414062 172.238281 102.6875 179.125 104.652344 185.808594 L 92.261719 178.78125 C 91.042969 172.914062 90.242188 166.957031 89.957031 160.964844 C 89.863281 159.332031 89.808594 157.699219 89.789062 156.066406 Z M 93.734375 185.128906 L 106.894531 192.589844 C 108.230469 196.140625 109.773438 199.613281 111.554688 202.972656 C 112.855469 205.441406 114.320312 207.835938 115.871094 210.175781 L 101.386719 205.253906 C 100.65625 203.824219 99.953125 202.386719 99.289062 200.929688 C 97.011719 195.816406 95.15625 190.527344 93.734375 185.128906 Z M 115.738281 200.929688 C 114.429688 197.988281 113.269531 194.988281 112.230469 191.949219 L 122.078125 181.148438 C 123.589844 187.242188 125.617188 193.207031 128.21875 198.960938 L 121.097656 211.050781 C 119.109375 207.777344 117.3125 204.394531 115.738281 200.929688 Z M 122.492188 126.035156 L 108.300781 132.550781 C 109.097656 128.371094 110.109375 124.230469 111.332031 120.144531 C 112.042969 117.847656 112.863281 115.582031 113.734375 113.335938 L 129.035156 108.230469 C 126.300781 113.957031 124.113281 119.929688 122.492188 126.035156 Z M 118.839844 155.53125 C 118.882812 162.199219 119.574219 168.855469 120.824219 175.40625 L 110.578125 186.652344 C 110.085938 184.898438 109.636719 183.140625 109.242188 181.367188 C 107.972656 175.84375 107.117188 170.222656 106.664062 164.570312 Z M 106.332031 158.84375 C 106.09375 152.671875 106.347656 146.484375 107.09375 140.351562 C 107.167969 139.648438 107.289062 138.949219 107.382812 138.246094 L 121.125 131.941406 C 120.515625 134.914062 120.023438 137.90625 119.679688 140.914062 C 119.328125 143.753906 119.113281 146.609375 118.976562 149.464844 Z M 109.503906 112.511719 C 108.574219 114.519531 107.691406 116.550781 106.914062 118.617188 C 105.371094 122.671875 104.144531 126.832031 103.152344 131.050781 L 95.1875 119.242188 C 96.964844 113.6875 99.214844 108.269531 101.941406 103.074219 Z M 93.460938 125.257812 L 101.824219 137.652344 C 100.660156 144.601562 100.191406 151.664062 100.367188 158.707031 L 89.882812 149.882812 C 90.011719 146.699219 90.257812 143.515625 90.644531 140.351562 C 91.203125 135.257812 92.183594 130.222656 93.460938 125.257812 Z M 83.976562 161.269531 C 84.851562 175.710938 88.292969 190.144531 95.105469 202.972656 C 101.820312 215.722656 111.90625 227.125 124.734375 233.410156 C 116.597656 227.441406 110.085938 219.878906 104.945312 211.523438 L 120.832031 216.929688 C 126.488281 223.761719 133.316406 229.554688 141.183594 233.410156 C 134.375 228.417969 128.707031 222.296875 124.015625 215.535156 L 130.714844 204.160156 C 134.71875 211.832031 139.75 218.992188 145.765625 225.292969 C 152.9375 232.574219 161.453125 238.675781 170.9375 242.546875 C 162.054688 237.539062 154.324219 231.007812 147.976562 223.453125 C 141.660156 215.867188 136.726562 207.320312 132.988281 198.367188 C 129.332031 189.378906 126.796875 179.976562 125.628906 170.402344 C 125.3125 168.015625 125.183594 165.605469 124.929688 163.210938 C 124.75 160.808594 124.769531 158.394531 124.679688 155.988281 C 124.65625 153.578125 124.867188 151.171875 124.949219 148.765625 C 125.023438 147.566406 125.011719 146.355469 125.160156 145.164062 L 125.625 141.582031 C 126.050781 136.777344 127.15625 132.078125 128.175781 127.375 L 130.226562 120.4375 C 130.929688 118.125 131.953125 115.929688 132.757812 113.65625 C 136.363281 104.6875 141.324219 96.25 147.464844 88.664062 C 153.65625 81.140625 161.160156 74.511719 169.898438 69.703125 C 178.585938 64.824219 188.515625 61.90625 198.796875 61.265625 C 188.503906 60.617188 177.972656 62.820312 168.527344 67.203125 C 159.074219 71.621094 150.707031 78.121094 143.863281 85.796875 C 139.390625 90.832031 135.519531 96.316406 132.238281 102.113281 L 116.230469 107.453125 C 120.136719 99 125.234375 91.050781 131.683594 84.03125 C 123.464844 90.273438 116.832031 98.570312 111.863281 107.792969 L 104.46875 98.566406 C 107.542969 93.421875 111.101562 88.53125 115.234375 84.03125 C 103.898438 92.644531 95.539062 105.132812 90.464844 118.617188 C 85.308594 132.15625 83.296875 146.808594 83.976562 161.269531 " fill-opacity="1" fill-rule="nonzero"/></g><g fill="#ffffff" fill-opacity="1"><g transform="translate(121.35791, 278.64383)"><g><path d="M 18.175781 -7.621094 C 17.25 -5.640625 15.007812 -4.289062 12.699219 -4.289062 C 9.070312 -4.289062 6.167969 -7.390625 6.167969 -11.214844 C 6.167969 -15.007812 9.070312 -18.140625 12.699219 -18.140625 C 14.976562 -18.140625 17.21875 -16.890625 18.140625 -14.875 L 23.652344 -14.875 C 22.132812 -19.460938 17.8125 -22.761719 12.699219 -22.761719 C 6.332031 -22.761719 1.15625 -17.582031 1.15625 -11.214844 C 1.15625 -4.847656 6.332031 0.328125 12.699219 0.328125 C 17.8125 0.328125 22.167969 -3 23.683594 -7.621094 Z M 18.175781 -7.621094 "/></g></g></g><g fill="#ffffff" fill-opacity="1"><g transform="translate(152.463549, 278.64383)"><g><path d="M 14.183594 -8.578125 L 8.511719 -8.578125 L 11.347656 -16.558594 Z M 22.5625 0 L 13.457031 -22.429688 L 9.269531 -22.429688 L 0.164062 0 L 5.476562 0 L 7.09375 -4.519531 L 15.636719 -4.519531 L 17.25 0 Z M 22.5625 0 "/></g></g></g><g fill="#ffffff" fill-opacity="1"><g transform="translate(181.787951, 278.64383)"><g><path d="M 6.925781 -8.015625 L 6.960938 -8.015625 L 12.304688 0 L 18.570312 0 L 12.140625 -8.246094 C 14.976562 -8.9375 17.25 -11.445312 17.25 -15.238281 C 17.25 -19.496094 14.019531 -22.429688 10.390625 -22.429688 L 1.980469 -22.429688 L 1.980469 0 L 6.925781 0 Z M 9.566406 -18.539062 C 11.015625 -18.539062 12.535156 -17.285156 12.535156 -15.238281 C 12.535156 -13.09375 11.015625 -11.90625 9.566406 -11.90625 L 6.925781 -11.90625 L 6.925781 -18.539062 Z M 9.566406 -18.539062 "/></g></g></g><g fill="#ffffff" fill-opacity="1"><g transform="translate(206.560311, 278.64383)"><g><path d="M 14.183594 -8.578125 L 8.511719 -8.578125 L 11.347656 -16.558594 Z M 22.5625 0 L 13.457031 -22.429688 L 9.269531 -22.429688 L 0.164062 0 L 5.476562 0 L 7.09375 -4.519531 L 15.636719 -4.519531 L 17.25 0 Z M 22.5625 0 "/></g></g></g><g fill="#ffffff" fill-opacity="1"><g transform="translate(235.884707, 278.64383)"><g><path d="M 6.925781 -8.015625 L 10.390625 -8.015625 C 14.019531 -8.015625 17.25 -10.6875 17.25 -15.238281 C 17.25 -19.496094 14.019531 -22.429688 10.390625 -22.429688 L 1.980469 -22.429688 L 1.980469 0 L 6.925781 0 Z M 9.566406 -18.539062 C 11.015625 -18.539062 12.535156 -17.285156 12.535156 -15.238281 C 12.535156 -13.09375 11.015625 -11.90625 9.566406 -11.90625 L 6.925781 -11.90625 L 6.925781 -18.539062 Z M 9.566406 -18.539062 "/></g></g></g></svg>