<svg xmlns="http://www.w3.org/2000/svg" xmlns:xlink="http://www.w3.org/1999/xlink" width="500" zoomAndPan="magnify" viewBox="0 0 375 374.999991" height="500" preserveAspectRatio="xMidYMid meet" version="1.0"><defs><clipPath id="e21e121bb5"><path d="M 70.273438 193.082031 L 126.898438 193.082031 L 126.898438 218.007812 L 70.273438 218.007812 Z M 70.273438 193.082031 " clip-rule="nonzero"/></clipPath><clipPath id="06d6c9fa4c"><path d="M 30.066406 87 L 365 87 L 365 279.449219 L 30.066406 279.449219 Z M 30.066406 87 " clip-rule="nonzero"/></clipPath><clipPath id="240f7db8b2"><path d="M 79.574219 20 L 375 20 L 375 366.691406 L 79.574219 366.691406 Z M 79.574219 20 " clip-rule="nonzero"/></clipPath><clipPath id="98ee00466f"><path d="M 97 49 L 346.6875 49 L 346.6875 310 L 97 310 Z M 97 49 " clip-rule="nonzero"/></clipPath></defs><rect x="-37.5" width="450" fill="#ffffff" y="-37.499999" height="449.999989" fill-opacity="1"/><rect x="-37.5" width="450" fill="#000000" y="-37.499999" height="449.999989" fill-opacity="1"/><g clip-path="url(#e21e121bb5)"><path fill="#000000" d="M 70.273438 193.082031 L 126.933594 193.082031 L 126.933594 218.007812 L 70.273438 218.007812 Z M 70.273438 193.082031 " fill-opacity="1" fill-rule="nonzero"/></g><path fill="#ffffff" d="M 324.574219 252.316406 C 317.929688 258.226562 309.164062 261.183594 300.269531 261.046875 L 70.234375 256.925781 L 289.84375 253.359375 C 300.199219 253.214844 310.519531 251.617188 320.300781 248.203125 C 324.371094 246.78125 328.46875 245.011719 332.015625 242.835938 C 332.015625 242.835938 329.976562 247.511719 324.574219 252.316406 " fill-opacity="1" fill-rule="nonzero"/><path fill="#ffffff" d="M 292.378906 146.121094 C 288.679688 131.847656 272.648438 115.023438 272.648438 115.023438 C 236.972656 102.078125 166.59375 101.195312 166.59375 101.195312 C 200.949219 96.4375 261.8125 98.113281 277.933594 112.117188 C 289.4375 122.113281 300.582031 140.632812 306.019531 150.417969 C 307.472656 153.03125 305.304688 156.15625 302.347656 155.710938 C 225.050781 143.988281 119.90625 146.261719 119.90625 146.261719 C 207.109375 132.34375 292.378906 146.121094 292.378906 146.121094 " fill-opacity="1" fill-rule="nonzero"/><path fill="#ffffff" d="M 250.625 216.9375 C 235.476562 218.875 193.902344 220.285156 180.6875 210.683594 C 180.6875 210.683594 226.933594 214.648438 250.980469 209.097656 C 275.027344 203.550781 286.917969 239.75 281.898438 245.5625 C 276.878906 251.378906 238.824219 249.527344 238.824219 249.527344 C 238.824219 249.527344 268.597656 247.414062 273.53125 240.015625 C 278.460938 232.617188 265.777344 215 250.625 216.9375 " fill-opacity="1" fill-rule="nonzero"/><path fill="#ffffff" d="M 336.421875 182.761719 C 336.421875 182.761719 343.820312 207.777344 322.679688 215.351562 C 301.539062 222.925781 277.582031 209.890625 277.582031 209.890625 C 277.582031 209.890625 310.699219 216.234375 321.136719 205.796875 C 331.574219 195.355469 325.894531 189.410156 325.894531 189.410156 C 325.894531 189.410156 313.476562 186.371094 302.113281 196.675781 C 290.75 206.984375 270.269531 197.207031 270.269531 197.207031 C 270.269531 197.207031 291.675781 194.035156 304.003906 183.992188 C 316.339844 173.953125 336.421875 182.761719 336.421875 182.761719 " fill-opacity="1" fill-rule="nonzero"/><g clip-path="url(#06d6c9fa4c)"><path fill="#ffffff" d="M 341.054688 268.285156 C 347.105469 268.238281 352.046875 263.441406 352.25 257.394531 C 353.039062 234.03125 352.714844 200.378906 352.714844 200.378906 C 344.0625 186.167969 334.128906 175.890625 334.128906 175.890625 C 344.523438 158.625 312.109375 155.984375 312.109375 155.984375 C 303.125 133.964844 283.03125 110.355469 283.03125 110.355469 C 252.71875 88.511719 159.550781 91.242188 159.550781 91.242188 C 218.476562 82.257812 276.082031 91.242188 287.710938 101.8125 C 299.339844 112.382812 315.722656 145.148438 315.722656 145.148438 C 315.722656 145.148438 334.746094 150.960938 341.617188 156.867188 C 348.488281 162.765625 346.109375 176.066406 346.109375 176.066406 C 355.621094 185.578125 360.203125 195.621094 360.203125 195.621094 L 364.078125 258.6875 C 365.839844 277.714844 354.566406 279.125 354.566406 279.125 L 30.066406 271.019531 L 341.054688 268.285156 " fill-opacity="1" fill-rule="nonzero"/></g><path fill="#ffffff" d="M 348.398438 166.027344 C 348.398438 166.027344 350.074219 158.074219 343.203125 154.078125 C 343.203125 154.078125 351.660156 154.839844 358.441406 157.128906 C 365.226562 159.417969 363.375 147.351562 352.980469 147.441406 C 342.585938 147.527344 335.714844 149.203125 335.714844 149.203125 C 335.714844 149.203125 327.335938 144.625 319.242188 142.507812 C 319.242188 142.507812 349.457031 135.195312 362.847656 141.363281 C 376.234375 147.527344 372.378906 166.90625 364.265625 169.019531 C 356.152344 171.132812 348.398438 166.027344 348.398438 166.027344 " fill-opacity="1" fill-rule="nonzero"/><g clip-path="url(#240f7db8b2)"><path fill="#000000" d="M 252.917969 20 C 157.144531 20 79.574219 97.574219 79.574219 193.34375 C 79.574219 289.117188 157.144531 366.691406 252.917969 366.691406 C 348.691406 366.691406 426.261719 289.117188 426.261719 193.34375 C 426.261719 97.574219 348.691406 20 252.917969 20 Z M 252.917969 332.019531 C 176.296875 332.019531 114.242188 269.964844 114.242188 193.34375 C 114.242188 116.726562 176.296875 54.667969 252.917969 54.667969 C 329.535156 54.667969 391.59375 116.726562 391.59375 193.34375 C 391.59375 269.964844 329.535156 332.019531 252.917969 332.019531 Z M 252.917969 332.019531 " fill-opacity="1" fill-rule="nonzero"/></g><path fill="#ff3131" d="M 120.691406 290.699219 L 115.089844 284.042969 C 113.171875 281.859375 111.710938 279.351562 110 277.015625 C 106.507812 272.371094 103.851562 267.234375 100.9375 262.234375 C 90.191406 241.75 84.191406 219.078125 81.921875 196.226562 C 79.808594 173.332031 81.929688 150.074219 88.136719 127.917969 C 91.066406 116.78125 95.667969 106.148438 100.734375 95.824219 L 105.035156 88.3125 C 106.394531 85.769531 107.988281 83.367188 109.703125 81.035156 C 111.390625 78.691406 112.972656 76.277344 114.746094 74.003906 L 120.371094 67.40625 C 135.585938 50.175781 156.460938 37.03125 179.480469 33.832031 C 182.300781 33.171875 185.21875 33.320312 188.082031 33.152344 C 190.960938 33.039062 193.824219 32.867188 196.691406 33.121094 C 202.414062 33.527344 208.085938 34.515625 213.5625 36.085938 C 224.539062 39.234375 234.675781 44.667969 243.523438 51.554688 C 224.722656 39.421875 201.683594 33.925781 180.292969 38.664062 C 158.824219 42.8125 140.085938 55.925781 126.257812 72.511719 L 121.195312 78.890625 C 119.605469 81.089844 118.195312 83.421875 116.679688 85.675781 C 113.503906 90.089844 111.253906 95.101562 108.546875 99.800781 C 103.972656 109.675781 99.816406 119.800781 97.269531 130.421875 C 91.703125 151.476562 89.703125 173.601562 91.90625 195.328125 C 93.910156 217.023438 99.519531 238.488281 109.371094 257.859375 C 112.011719 262.59375 114.398438 267.5 117.574219 271.894531 C 119.132812 274.105469 120.445312 276.507812 122.195312 278.570312 L 127.28125 284.890625 C 128.921875 287.050781 130.992188 288.800781 132.824219 290.785156 C 134.695312 292.730469 136.5625 294.683594 138.699219 296.332031 L 144.898438 301.511719 L 151.597656 306 C 160.773438 311.511719 170.785156 315.855469 181.425781 317.648438 C 191.882812 319.34375 203.304688 319.117188 214.484375 319.492188 C 236.890625 320.179688 259.304688 320.839844 281.71875 321.953125 C 259.304688 323.066406 236.890625 323.726562 214.484375 324.414062 C 203.277344 324.601562 192.191406 325.425781 180.417969 324.148438 C 168.785156 322.761719 157.746094 318.335938 147.578125 312.714844 C 137.292969 307.09375 128.605469 299.140625 120.691406 290.699219 " fill-opacity="1" fill-rule="nonzero"/><g clip-path="url(#98ee00466f)"><path fill="#d9d9d9" d="M 107.441406 191.691406 L 108.453125 200.265625 C 108.703125 203.136719 109.25 205.957031 109.835938 208.773438 C 110.441406 211.578125 110.820312 214.4375 111.605469 217.199219 C 114.265625 228.378906 118.363281 239.152344 123.488281 249.355469 C 128.625 259.578125 135.464844 268.835938 143.28125 276.984375 C 151.140625 285.097656 160.378906 291.882812 170.679688 296.3125 L 178.582031 299.117188 C 181.277344 299.816406 184.03125 300.300781 186.75 300.945312 C 192.257812 301.710938 197.792969 302.082031 203.855469 302.082031 C 251.292969 302.820312 298.726562 303.910156 346.160156 306 C 298.726562 308.089844 251.292969 309.179688 203.855469 309.914062 C 198.070312 310.105469 191.722656 309.953125 185.480469 309.261719 C 182.410156 308.664062 179.304688 308.140625 176.257812 307.410156 L 167.332031 304.4375 C 155.703125 299.71875 145.328125 292.390625 136.542969 283.675781 C 118.859375 266.132812 107.847656 243.203125 101.863281 219.570312 C 101.050781 216.621094 100.65625 213.582031 100.035156 210.589844 C 99.4375 207.59375 98.878906 204.585938 98.625 201.539062 L 97.621094 192.4375 L 97.296875 183.296875 C 97.261719 181.773438 97.167969 180.25 97.171875 178.726562 L 97.359375 174.15625 C 97.507812 171.109375 97.554688 168.058594 97.789062 165.019531 C 98.550781 158.96875 98.988281 152.871094 100.417969 146.917969 C 101.4375 140.890625 103.25 135.050781 104.917969 129.179688 C 105.851562 126.273438 107.003906 123.4375 108.039062 120.566406 C 109.019531 117.671875 110.304688 114.894531 111.625 112.136719 C 114.03125 106.507812 117.203125 101.246094 120.289062 95.96875 L 125.582031 88.449219 C 127.296875 85.914062 129.480469 83.714844 131.410156 81.335938 C 139.527344 72.167969 149.105469 64.113281 160.097656 58.488281 C 171.027344 52.832031 183.339844 49.609375 195.632812 49.820312 C 207.898438 49.820312 220.027344 53.101562 230.636719 58.828125 C 241.285156 64.550781 250.4375 72.585938 257.945312 81.765625 C 249.65625 73.285156 240.027344 66.148438 229.410156 61.304688 C 218.792969 56.503906 207.175781 54.019531 195.71875 54.71875 C 184.25 55.09375 173.046875 58.5625 163.191406 64.253906 C 153.308594 69.929688 144.609375 77.570312 137.34375 86.390625 C 135.621094 88.675781 133.652344 90.765625 132.125 93.203125 L 127.414062 100.390625 C 124.683594 105.4375 121.761719 110.382812 119.621094 115.730469 C 118.429688 118.34375 117.269531 120.96875 116.40625 123.722656 C 115.488281 126.449219 114.449219 129.128906 113.628906 131.882812 C 112.179688 137.457031 110.5625 142.976562 109.722656 148.6875 C 108.507812 154.320312 108.128906 160.082031 107.433594 165.792969 C 107.230469 168.664062 107.210938 171.550781 107.089844 174.425781 L 106.933594 178.746094 C 106.941406 180.183594 107.042969 181.621094 107.089844 183.0625 L 107.441406 191.691406 " fill-opacity="1" fill-rule="nonzero"/></g><path fill="#ff3131" d="M 10.863281 179.902344 L 29.238281 195.363281 C 30.332031 206.980469 32.46875 218.519531 35.757812 229.714844 L 15 217.945312 C 12.964844 208.117188 11.621094 198.140625 11.140625 188.105469 C 10.984375 185.371094 10.898438 182.636719 10.863281 179.902344 Z M 17.472656 228.574219 L 39.511719 241.070312 C 41.75 247.015625 44.332031 252.832031 47.316406 258.460938 C 49.496094 262.59375 51.949219 266.601562 54.542969 270.523438 L 30.289062 262.277344 C 29.0625 259.886719 27.882812 257.476562 26.773438 255.035156 C 22.960938 246.476562 19.851562 237.617188 17.472656 228.574219 Z M 54.324219 255.035156 C 52.132812 250.113281 50.1875 245.089844 48.449219 239.992188 L 64.941406 221.902344 C 67.476562 232.113281 70.871094 242.105469 75.222656 251.738281 L 63.296875 271.988281 C 59.972656 266.503906 56.960938 260.84375 54.324219 255.035156 Z M 65.636719 129.601562 L 41.871094 140.515625 C 43.203125 133.511719 44.898438 126.578125 46.945312 119.734375 C 48.136719 115.886719 49.507812 112.09375 50.964844 108.332031 L 76.59375 99.785156 C 72.015625 109.371094 68.351562 119.378906 65.636719 129.601562 Z M 59.515625 179.003906 C 59.589844 190.171875 60.746094 201.316406 62.839844 212.292969 L 45.679688 231.121094 C 44.859375 228.191406 44.105469 225.242188 43.445312 222.273438 C 41.320312 213.019531 39.882812 203.609375 39.125 194.140625 Z M 38.570312 184.554688 C 38.175781 174.214844 38.597656 163.851562 39.84375 153.582031 C 39.972656 152.402344 40.171875 151.230469 40.328125 150.050781 L 63.347656 139.492188 C 62.328125 144.472656 61.503906 149.484375 60.929688 154.523438 C 60.335938 159.277344 59.976562 164.058594 59.746094 168.84375 Z M 43.882812 106.949219 C 42.324219 110.316406 40.847656 113.71875 39.546875 117.179688 C 36.964844 123.96875 34.90625 130.9375 33.246094 138.003906 L 19.90625 118.222656 C 22.878906 108.917969 26.648438 99.847656 31.214844 91.144531 Z M 17.015625 128.296875 L 31.019531 149.058594 C 29.070312 160.695312 28.289062 172.523438 28.582031 184.320312 L 11.019531 169.542969 C 11.234375 164.210938 11.652344 158.878906 12.292969 153.582031 C 13.234375 145.050781 14.878906 136.613281 17.015625 128.296875 Z M 1.128906 188.613281 C 2.589844 212.800781 8.355469 236.972656 19.769531 258.460938 C 31.015625 279.8125 47.90625 298.910156 69.390625 309.433594 C 55.765625 299.441406 44.859375 286.773438 36.246094 272.78125 L 62.855469 281.832031 C 72.332031 293.277344 83.761719 302.976562 96.9375 309.433594 C 85.535156 301.074219 76.042969 290.820312 68.183594 279.5 L 79.40625 260.449219 C 86.109375 273.292969 94.539062 285.289062 104.613281 295.839844 C 116.625 308.035156 130.886719 318.253906 146.769531 324.742188 C 131.894531 316.347656 118.945312 305.414062 108.320312 292.761719 C 97.738281 280.058594 89.472656 265.742188 83.21875 250.746094 C 77.09375 235.695312 72.84375 219.945312 70.890625 203.910156 C 70.359375 199.910156 70.140625 195.875 69.722656 191.863281 C 69.421875 187.839844 69.449219 183.796875 69.296875 179.765625 C 69.257812 175.730469 69.613281 171.703125 69.75 167.671875 C 69.875 165.664062 69.855469 163.636719 70.101562 161.640625 L 70.886719 155.640625 C 71.597656 147.59375 73.449219 139.726562 75.15625 131.84375 L 78.589844 120.222656 C 79.769531 116.355469 81.476562 112.675781 82.832031 108.867188 C 88.867188 93.847656 97.171875 79.714844 107.460938 67.015625 C 117.828125 54.410156 130.398438 43.3125 145.03125 35.257812 C 159.585938 27.085938 176.214844 22.199219 193.433594 21.121094 C 176.195312 20.042969 158.554688 23.730469 142.734375 31.070312 C 126.90625 38.464844 112.890625 49.351562 101.429688 62.210938 C 93.941406 70.644531 87.453125 79.832031 81.957031 89.539062 L 55.148438 98.480469 C 61.691406 84.324219 70.226562 71.007812 81.027344 59.25 C 67.265625 69.710938 56.160156 83.601562 47.835938 99.046875 L 35.445312 83.597656 C 40.597656 74.980469 46.558594 66.785156 53.476562 59.25 C 34.496094 73.679688 20.492188 94.589844 11.996094 117.179688 C 3.363281 139.851562 -0.0078125 164.390625 1.128906 188.613281 " fill-opacity="1" fill-rule="nonzero"/></svg>